<svg xmlns="http://www.w3.org/2000/svg" viewBox="0 0 64 64">
  <defs>
    <linearGradient id="bg" x1="0%" y1="0%" x2="100%" y2="100%">
      <stop offset="0%" stop-color="#f97316"/>
      <stop offset="100%" stop-color="#dc2626"/>
    </linearGradient>
  </defs>
  <rect width="64" height="64" rx="14" fill="url(#bg)"/>
  <!-- Steak shape -->
  <ellipse cx="32" cy="30" rx="18" ry="13" fill="#fff" opacity="0.95"/>
  <ellipse cx="32" cy="30" rx="14" ry="9.5" fill="#fbbf24" opacity="0.4"/>
  <!-- Marbling lines -->
  <path d="M24 28c3-2 6 2 9 0s5-3 7-1" fill="none" stroke="#f97316" stroke-width="1.2" stroke-linecap="round" opacity="0.6"/>
  <path d="M22 32c4-1 5 2 8 1s6-2 8-1" fill="none" stroke="#f97316" stroke-width="1" stroke-linecap="round" opacity="0.5"/>
  <!-- AI circuit nodes -->
  <circle cx="20" cy="50" r="2.5" fill="#fff" opacity="0.9"/>
  <circle cx="32" cy="52" r="2.5" fill="#fff" opacity="0.9"/>
  <circle cx="44" cy="50" r="2.5" fill="#fff" opacity="0.9"/>
  <circle cx="26" cy="46" r="1.5" fill="#fff" opacity="0.7"/>
  <circle cx="38" cy="46" r="1.5" fill="#fff" opacity="0.7"/>
  <!-- Circuit lines -->
  <path d="M20 50 L26 46 L32 52 L38 46 L44 50" fill="none" stroke="#fff" stroke-width="1.5" stroke-linecap="round" stroke-linejoin="round" opacity="0.8"/>
  <path d="M26 46 L26 42" fill="none" stroke="#fff" stroke-width="1.2" stroke-linecap="round" opacity="0.6"/>
  <path d="M38 46 L38 42" fill="none" stroke="#fff" stroke-width="1.2" stroke-linecap="round" opacity="0.6"/>
</svg>
